<svg xmlns="http://www.w3.org/2000/svg" width="16" height="16" viewBox="0 0 16 16">
    <g fill="#000" fill-rule="evenodd">
        <path fill-rule="nonzero" d="M5.817 0C2.608 0 0 2.605 0 5.81s2.608 5.809 5.817 5.809c1.531 0 2.919-.6 3.954-1.55l5.878 5.87a.224.224 0 0 0 .144.062.224.224 0 0 0 .145-.062.2.2 0 0 0 0-.29L10.06 9.758a5.722 5.722 0 0 0 1.553-3.949C11.633 2.605 9.025 0 5.817 0zm3.87 9.571c-.02 0-.041.02-.062.041-.021.021-.021.041-.041.062a5.357 5.357 0 0 1-3.767 1.53A5.403 5.403 0 0 1 .414 5.809a5.403 5.403 0 0 1 10.806 0A5.35 5.35 0 0 1 9.687 9.57z"/>
        <path d="M5.206 1C5.082 1 5 1.082 5 1.206c0 .124.082.206.206.206a4.386 4.386 0 0 1 4.382 4.382c0 .124.082.206.206.206.124 0 .206-.082.206-.206C10 3.16 7.839 1 5.206 1z"/>
    </g>
</svg>
